<svg id="Layer_1" data-name="Layer 1" xmlns="http://www.w3.org/2000/svg" viewBox="0 0 515 512"><defs><style>.cls-1{fill:#1d272d;}.cls-2{fill:#055eaa;}.cls-3{fill:#6d6e71;}</style></defs><rect class="cls-1" x="141.83" y="246.82" width="59.65" height="4.94"/><path class="cls-1" d="M36.31,302.75h-12q-7.12,0-11.24-4.17T9,287.18V247.81q0-7.25,4.11-11.41t11.24-4.17h12q7.13,0,11.29,4.17t4.17,11.41v4.93c0,.88-.4,1.32-1.21,1.32H47.38q-1.2,0-1.2-1.32V248q0-5.26-2.63-8.06t-7.68-2.8H24.79q-5,0-7.67,2.85t-2.64,8V287c0,3.44.88,6.1,2.64,8s4.31,2.85,7.67,2.85H35.87q5,0,7.68-2.79c1.75-1.87,2.63-4.55,2.63-8.06V272.48a.88.88,0,0,0-1-1H32.58a1.06,1.06,0,0,1-1.21-1.2v-2.52a1.07,1.07,0,0,1,1.21-1.21H49.69c1.38,0,2.08.73,2.08,2.19v18.43q0,7.23-4.17,11.4T36.31,302.75Z"/><path class="cls-1" d="M83,302.75H73.59q-7.12,0-11.24-4.17t-4.11-11.4V262.39q0-7.23,4.11-11.4t11.24-4.17H83q7.14,0,11.3,4.17t4.17,11.4v24.79q0,7.23-4.17,11.4T83,302.75Zm-9-4.94h8.56c3.36,0,5.93-.93,7.73-2.79S93,290.5,93,287.07V262.5q0-5.14-2.68-7.95c-1.8-1.86-4.37-2.8-7.73-2.8H74c-3.36,0-5.92.94-7.68,2.8s-2.63,4.52-2.63,7.95v24.57q0,5.15,2.63,7.95T74,297.81Z"/><path class="cls-1" d="M126.23,302.75h-7q-7.12,0-11.24-4.17t-4.11-11.4V262.39q0-7.23,4.11-11.4t11.24-4.17h23.25c.73,0,1.1.44,1.1,1.32v53.29c0,.88-.37,1.32-1.1,1.32h-3.18q-1.2,0-1.2-1.32v-4.38h-.44Q134.77,302.75,126.23,302.75Zm11.85-15.68V252.74c0-.66-.37-1-1.1-1H119.65c-3.36,0-5.92,1-7.68,2.86s-2.63,4.57-2.63,8V287c0,3.44.88,6.1,2.63,8s4.32,2.85,7.68,2.85h7.13q5.26,0,8.28-2.79T138.08,287.07Z"/><path class="cls-1" d="M153.65,251.75H147c-.81,0-1.21-.36-1.21-1.09V248a1.07,1.07,0,0,1,1.21-1.21h6.69a.87.87,0,0,0,1-1V237c0-.88.41-1.32,1.21-1.32H159c.8,0,1.21.44,1.21,1.32v8.88a.87.87,0,0,0,1,1h13a1.07,1.07,0,0,1,1.21,1.21v2.63c0,.73-.4,1.09-1.21,1.09h-13a.87.87,0,0,0-1,1v34.55c0,3.36,1,6,2.85,7.78s4.57,2.74,8,2.74h4.27a1.07,1.07,0,0,1,1.21,1.21v2.52a1.07,1.07,0,0,1-1.21,1.21h-4.71q-7.25,0-11.63-4.06t-4.39-11.18V252.74A.87.87,0,0,0,153.65,251.75Z"/><path class="cls-2" d="M353.24,302.75H339.42q-7.14,0-11.24-4.17t-4.12-11.4V247.81q0-7.25,4.12-11.41t11.24-4.17h13.82q7.13,0,11.24,4.17t4.11,11.41v5.37c0,.88-.4,1.32-1.21,1.32h-3.07q-1.2,0-1.2-1.32V248q0-5.26-2.69-8.06t-7.73-2.8H339.86q-5.06,0-7.68,2.85t-2.63,8V287c0,3.44.88,6.1,2.63,8s4.31,2.85,7.68,2.85h12.83q5,0,7.73-2.79c1.79-1.87,2.69-4.55,2.69-8.06V281.8c0-.87.4-1.31,1.2-1.31h3.07c.81,0,1.21.44,1.21,1.31v5.38q0,7.23-4.11,11.4T353.24,302.75Z"/><path class="cls-2" d="M398.42,302.75H389q-7.14,0-11.24-4.17t-4.12-11.4V262.39q0-7.23,4.12-11.4T389,246.82h9.43q7.13,0,11.29,4.17t4.17,11.4v24.79q0,7.23-4.17,11.4T398.42,302.75Zm-9-4.94H398q5,0,7.73-2.79t2.69-7.95V262.5q0-5.14-2.69-7.95c-1.79-1.86-4.37-2.8-7.73-2.8h-8.55c-3.37,0-5.93.94-7.68,2.8s-2.63,4.52-2.63,7.95v24.57q0,5.15,2.63,7.95T389.43,297.81Z"/><path class="cls-2" d="M441.74,302.75h-7.35q-7,0-11.08-4.17t-4.06-11.4V262.39q0-7.23,4.06-11.4t11.08-4.17h7.35q8.43,0,11.51,5.7h.44V227c0-.88.36-1.32,1.1-1.32H458q1.2,0,1.2,1.32v74.46q0,1.32-1.2,1.32h-3.18c-.74,0-1.1-.44-1.1-1.32v-4.38h-.44Q450.17,302.75,441.74,302.75Zm11.95-15.68V262.5q0-5.14-3-7.95c-2-1.86-4.77-2.8-8.28-2.8H435c-3.36,0-5.92,1-7.67,2.86s-2.63,4.57-2.63,8V287c0,3.44.87,6.1,2.63,8s4.31,2.85,7.67,2.85h7.35q5.26,0,8.28-2.79T453.69,287.07Z"/><path class="cls-2" d="M504,302.75H481.11c-4.76,0-8.5-1.39-11.25-4.17s-4.11-6.58-4.11-11.4V262.39q0-7.23,4.11-11.4c2.75-2.78,6.49-4.17,11.25-4.17h9.43q7.13,0,11.29,4.17t4.17,11.4v13.93a1.17,1.17,0,0,1-1.32,1.32H472.22a.86.86,0,0,0-1,1v8.45c0,3.43.87,6.08,2.63,7.95s4.31,2.79,7.67,2.79H504a1.07,1.07,0,0,1,1.2,1.21v2.52A1.06,1.06,0,0,1,504,302.75Zm-31.81-29.5h27.31a.88.88,0,0,0,1-1V262.5q0-5.14-2.63-7.95c-1.76-1.86-4.32-2.8-7.68-2.8h-8.67c-3.36,0-5.92.94-7.67,2.8s-2.63,4.52-2.63,7.95v9.76A.87.87,0,0,0,472.22,273.25Z"/><path class="cls-3" d="M321.62,233.81a40.54,40.54,0,0,0,.18-4.27,73.16,73.16,0,0,1,.91-12.95c-3.81,10-7.43,20.09-11,30.21C317.94,245.87,320.88,242,321.62,233.81Z"/><path class="cls-3" d="M203.06,233.81a38,38,0,0,1-.17-4.27,74.12,74.12,0,0,0-.92-12.95c3.82,10,7.44,20.09,11,30.21C206.74,245.87,203.8,242,203.06,233.81Z"/><path class="cls-3" d="M403.31,91.33c9.7,13.29,1.92,23.72-15.07,31a243.64,243.64,0,0,1-44.76,14.11,334.13,334.13,0,0,1-37,5.67c-2.08-7-5.71-12.59-13.1-14.84-.05,4-.23,7.91-.58,11.76a23.73,23.73,0,0,0-3.94-.46l-2.08-.05c.1-4.5,0-8.77-.1-12.67-1.28,0-2.59-.07-3.89,0-6.9.42-13.56-.54-19.62-5.17a1.86,1.86,0,0,0-.89-.33,1.94,1.94,0,0,0-.9.33c-6.06,4.63-12.71,5.59-19.62,5.17-1.3-.08-2.6,0-3.88,0-.12,3.9-.21,8.17-.1,12.67l-2.09.05a24,24,0,0,0-3.94.46c-.34-3.86-.52-7.78-.57-11.76-7.46,2.27-11.09,7.94-13.16,15-1.18-.09-2.36-.16-3.53-.26-26.87-2.17-52.57-7.06-75.59-16.31-22.47-9-29.16-19-22.38-34.28-22.68,9.32-28.11,26.37-10.7,38.31,9.78,6.71,23.41,11.28,35.32,16.8,2.19,1,5.63,1.69,6.5,3,5.24,8,16.57,11.81,27.8,15.66,11.61,4,21.94,8.9,29.16,15.07A150,150,0,0,1,196,200.88a108.81,108.81,0,0,1,5.22,11.63c5.46,14.33,10.4,29,15.36,43.59,2.89,8.55,3.28,17.5,2,26.65a35.39,35.39,0,0,0,3.8,22.68c5.46,9.95,10.52,20.25,16.19,30a77.4,77.4,0,0,0,11.14,15.44c4,4.08,8.29,6.12,12.56,6.19h.06c4.27-.07,8.54-2.11,12.56-6.19A77.8,77.8,0,0,0,286,335.44c5.66-9.76,10.72-20.06,16.19-30a35.39,35.39,0,0,0,3.8-22.68c-1.33-9.15-.94-18.1,2-26.65,5-14.62,9.9-29.26,15.36-43.59a105,105,0,0,1,5.22-11.63,149,149,0,0,1-9.18-22.35c8.1-6.21,19.39-9.83,31.8-15.55,8.57-3.94,14-6.59,19.95-11,3-2.25,5.84-4.43,9.6-5.67,14.21-4.71,27.61-9.92,36.87-18.36C431.1,115.62,425,99.27,403.31,91.33ZM240.48,218.94c-1.48,0-2.68-4.46-2.68-9.95s1.2-10,2.68-10,2.68,4.46,2.68,10S242,218.94,240.48,218.94Zm18.73,126.32c-6.51-2.49-10.94-7.79-13.87-15.1-2.61-6.51-3.14-13.14,0-20C256.4,316.47,262.6,332.13,259.21,345.26Zm20-15.1c-2.93,7.31-7.36,12.61-13.87,15.1-3.39-13.13,2.81-28.79,13.84-35.06C282.35,317,281.82,323.65,279.22,330.16Zm4.5-111.22c-1.48,0-2.68-4.46-2.68-9.95s1.2-10,2.68-10,2.68,4.46,2.68,10S285.2,218.94,283.72,218.94Z"/></svg>